<?xml version="1.0" encoding="UTF-8"?>
<svg width="300px" height="238px" viewBox="0 0 300 238" version="1.1" xmlns="http://www.w3.org/2000/svg" xmlns:xlink="http://www.w3.org/1999/xlink">
    <title>Logo_MC</title>
    <g id="Logo-final" stroke="none" stroke-width="1" fill="none" fill-rule="evenodd">
        <g id="Logo_MC">
            <polygon id="Rectangle-Copy-13" fill="#E9D7A5" transform="translate(150.000000, 118.664724) rotate(7.000000) translate(-150.000000, -118.664724) " points="70.4684224 16.1188599 101.862411 20.916085 288.535425 49.4407625 274.577163 221.210589 15.406495 208.939348 11.4645751 180.015078 66.1243337 27.9682787"></polygon>
            <polygon id="Rectangle-Copy-16" fill="#CA6700" transform="translate(127.500366, 117.346966) rotate(7.000000) translate(-127.500366, -117.346966) " points="77.9641892 39.1694475 198.921373 63.6704344 177.849852 195.524484 56.0793588 188.027947"></polygon>
            <g id="mc" transform="translate(75.898843, 96.599579)" fill="#00131A" fill-rule="nonzero">
                <path d="M115.928422,6.77189671 C113.026181,2.2572989 104.319457,0 97.0638529,0 C89.0020711,0 79.4891686,3.22471272 72.0723293,12.0926727 C71.5886224,9.35166689 71.1049155,7.73931053 70.459973,6.77189671 C67.5577315,2.2572989 58.8510072,0 51.5954035,0 C43.0499148,0 32.8920698,3.54718399 25.3139949,13.7050291 L22.4117534,1.61235636 L0,1.61235636 L0,75.7807489 L27.5712938,75.7807489 L27.5712938,24.6690523 C30.4735352,23.5404029 33.8594836,22.7342247 36.9229607,22.572989 C39.9864377,22.2505178 43.3723861,22.7342247 44.3397999,23.7016385 C45.1459781,24.5078167 45.4684494,26.9263512 45.4684494,29.8285927 L45.4684494,39.5027308 L45.4684494,75.7807489 L73.0397431,75.7807489 L73.0397431,36.761725 C73.0397431,32.0858916 73.0397431,28.2162363 72.8785075,24.830288 C75.7807489,23.5404029 79.3279329,22.7342247 82.39141,22.572989 C85.4548871,22.2505178 88.8408355,22.7342247 89.8082493,23.7016385 C90.6144275,24.5078167 90.9368987,27.4100581 90.9368987,30.7960065 L90.9368987,39.5027308 L90.9368987,75.7807489 L118.508192,75.7807489 L118.508192,36.761725 C118.508192,16.9297418 117.540779,9.19043125 115.928422,6.77189671 Z" id="Path"></path>
                <path d="M179.616499,56.4324726 C155.269918,58.2060646 145.273308,57.7223577 145.273308,39.5027308 C145.273308,33.214541 146.724429,22.2505178 148.659256,21.4443396 C150.594084,20.6381614 156.398567,20.3156901 163.009228,20.4769258 C168.49124,20.4769258 174.456958,20.7993971 178.649085,21.1218683 C179.455263,17.0909774 180.906384,5.96571853 181.228855,2.09606327 C173.65078,0.80617818 166.072705,0.161235636 158.817102,0.161235636 C144.789601,0.161235636 129.472216,4.0308909 124.957618,9.02919562 C121.410434,12.8988509 116.895836,26.7651156 116.895836,40.308909 C116.895836,66.4290821 128.988509,77.8768122 152.851383,77.8768122 C161.235636,77.8768122 171.393481,77.070634 182.035033,73.52345 L179.616499,56.4324726 Z" id="Path"></path>
            </g>
        </g>
    </g>
</svg>